# xmcd CD database file
#
# Track frame offsets:
#	150
#	13717
#	30939
#	60161
#	82841
#	103571
#	121502
#	147790
#	163239
#	187017
#	204360
#
# Disc length: 2805 seconds
#
# Revision: 0
# Processed by: cddbd v1.4PL0 Copyright (c) Steve Scherf et al.
# Submitted via: CDex 1.50beta9
#
DISCID=7b0af30b
DTITLE=Various Artist - Healing Moods Vol. 1 Keys of Healing
DYEAR=1900
DGENRE=New Age
TTITLE0=Angels of Hope (Dik Darnell)
TTITLE1=Vision (Kenny Passarelli)
TTITLE2=The Wanderer (Karunesh)
TTITLE3=To the Children (Denean)
TTITLE4=Conversations at Miller's Creek (John Bergeron)
TTITLE5=Healing Hands of Time (Mariam)
TTITLE6=Spirit of Two Hearts (Dik Darnell)
TTITLE7=Hymn for my Father (Matt Ender)
TTITLE8=Heather (Eric Koenig)
TTITLE9=Butterfly Concerto (Denean)
TTITLE10=I Am (Dik Darnell)
EXTD=
EXTT0=
EXTT1=
EXTT2=
EXTT3=
EXTT4=
EXTT5=
EXTT6=
EXTT7=
EXTT8=
EXTT9=
EXTT10=
PLAYORDER=
